<?xml version="1.0" encoding="UTF-8"?><svg id="souris_noire" xmlns="http://www.w3.org/2000/svg" viewBox="0 0 156.94 296.16"><defs><style>.cls-1,.cls-2,.cls-3,.cls-4,.cls-5{fill:#000;}.cls-1,.cls-6{stroke-width:0px;}.cls-2{stroke-width:4.79px;}.cls-2,.cls-3,.cls-4{stroke-miterlimit:10;}.cls-2,.cls-3,.cls-4,.cls-7,.cls-5{stroke:#bababa;}.cls-3{stroke-width:3px;}.cls-4,.cls-7{stroke-width:4px;}.cls-7{fill:none;}.cls-7,.cls-5{stroke-linecap:round;stroke-linejoin:round;}.cls-6{fill:#bababa;}.cls-5{stroke-width:5px;}</style></defs><ellipse class="cls-2" cx="90.81" cy="124.45" rx="56.14" ry="60.59" transform="translate(-36.73 38.04) rotate(-19.76)"/><path class="cls-1" d="M66.3,25.14c-11.47-5.97-18.33-5.97-18.33-5.97,0,0-6.08,4.11-10.34,18.62-2.52,8.58-1.68,26.59-1.68,26.59,0,0,1.47,20.05,13.75,22.86s39.88-3.34,45.13-16.03c7.3-17.65-18.3-40.73-28.52-46.06ZM51.88,55.09c-2.58,0-4.68-2.1-4.68-4.68s2.1-4.68,4.68-4.68,4.68,2.1,4.68,4.68-2.1,4.68-4.68,4.68ZM67.28,50.89c-2.58,0-4.68-2.1-4.68-4.68s2.1-4.68,4.68-4.68,4.68,2.1,4.68,4.68-2.1,4.68-4.68,4.68Z"/><path class="cls-6" d="M56.5,89.38c-2.7,0-5.14-.23-7.14-.69-13.21-3.02-14.85-23.35-14.91-24.21-.04-.79-.82-18.4,1.74-27.12,4.36-14.86,10.67-19.26,10.94-19.44l.38-.26h.46c.29,0,7.36.07,19.03,6.14h0c11.12,5.79,36.94,29.3,29.22,47.96-4.79,11.57-25.79,17.6-39.71,17.6ZM48.46,20.7c-1.3,1.13-5.96,5.81-9.39,17.51-2.42,8.24-1.63,25.92-1.62,26.1.01.15,1.54,18.93,12.59,21.47,12.46,2.85,38.62-3.55,43.41-15.14,6.56-15.85-16.82-38.42-27.83-44.15h0c-9.25-4.81-15.43-5.64-17.15-5.78Z"/><circle class="cls-4" cx="37.32" cy="83.13" r="17.77"/><circle class="cls-4" cx="100.87" cy="56.82" r="17.77"/><path class="cls-7" d="M113.89,181.64s30.71,8.44,27.17,31.78-39.33,70.37-.06,78.36"/><line class="cls-5" x1="35.09" y1="39.75" x2="16" y2="35.82"/><line class="cls-5" x1="38.96" y1="30.44" x2="28.22" y2="28.6"/><line class="cls-5" x1="73.32" y1="28.6" x2="89.65" y2="17.95"/><circle class="cls-3" cx="45.79" cy="13.08" r="6.08"/><line class="cls-5" x1="64.32" y1="22.23" x2="73.32" y2="16.11"/><circle class="cls-6" cx="52.07" cy="50.41" r="4.81"/><circle class="cls-6" cx="67.28" cy="46.21" r="4.81"/><ellipse class="cls-6" cx="51.58" cy="51.04" rx="1.11" ry=".15"/></svg>